<svg width="1828" height="1558" viewBox="0 0 1828 1558" fill="none" xmlns="http://www.w3.org/2000/svg">
<path d="M1452.8 10.2657C1452.4 15.8657 1452 94.5324 1452 185.066V349.732L1583.07 348.932C1655.07 348.399 1739.33 347.999 1770.4 347.999H1826.67V173.999V-0.000929698H1640.13H1453.73L1452.8 10.2657Z" fill="#F5880D"/>
<path d="M968.934 406.265C967.734 408.265 967.334 750.398 968.4 751.598C969.067 752.132 1053.2 752.798 1155.47 753.065L1341.33 753.465V579.332V405.331H1155.47C1053.2 405.331 969.2 405.731 968.934 406.265Z" fill="#F5880D"/>
<path d="M1452 580.132V754.932L1545.07 754.132C1596.13 753.732 1680.4 752.932 1732.4 752.532L1826.67 751.732V578.532V405.332H1639.33H1452V580.132Z" fill="#F5880D"/>
<path d="M1452.4 807.599C1450.4 808.399 1450.27 837.599 1451.6 1028.27L1452.4 1157.33H1639.6H1826.67V981.999V806.665L1640.4 806.799C1537.87 806.799 1453.2 807.199 1452.4 807.599Z" fill="#F5880D"/>
<path d="M968 881.599C968 922.132 967.6 1000.8 967.067 1056.27L966.267 1157.33H1153.6H1340.93L1341.73 1099.07C1342.93 1024.53 1342.93 851.732 1341.73 826.932L1340.93 807.999H1154.4H968V881.599Z" fill="#F5880D"/>
<path d="M520.667 810.665L483.334 811.332L482.934 984.265L482.667 1157.33H671.334H860V983.332V809.332L709.067 809.599C626 809.865 541.2 810.265 520.667 810.665Z" fill="#F5880D"/>
<path d="M661.734 1212.93L482.667 1213.33V1385.33V1557.33H671.334H860V1384.67V1212L850.4 1212.27C845.067 1212.53 760.134 1212.8 661.734 1212.93Z" fill="#F5880D"/>
<path d="M968 1375.07C968 1464.13 967.6 1541.47 967.2 1547.07L966.267 1557.33H1153.6H1340.93L1341.73 1410.27C1342.27 1329.47 1343.07 1252.13 1343.6 1238.27L1344.4 1213.33H1156.27H968V1375.07Z" fill="#F5880D"/>
<path d="M1452 1385.33V1557.33H1639.2H1826.4L1827.2 1554.27C1828.27 1550.27 1828.27 1381.47 1827.07 1288.27L1826.27 1213.33H1639.07H1452V1385.33Z" fill="#F5880D"/>
<path d="M0 1386V1557.33H187.333H374.667V1386V1214.67H187.333H0V1386Z" fill="#F5880D"/>
</svg>
