<svg width="8682" height="1558" viewBox="0 0 8682 1558" fill="none" xmlns="http://www.w3.org/2000/svg">
<path d="M1452.8 10.2677C1452.4 15.8677 1452 94.5344 1452 185.068V349.734L1583.07 348.934C1655.07 348.401 1739.33 348.001 1770.4 348.001H1826.67V174.001V0.00102343H1640.13H1453.73L1452.8 10.2677Z" fill="#F5880D"/>
<path d="M968.934 406.267C967.734 408.267 967.334 750.4 968.4 751.6C969.067 752.133 1053.2 752.8 1155.47 753.067L1341.33 753.467V579.333V405.333H1155.47C1053.2 405.333 969.2 405.733 968.934 406.267Z" fill="#F5880D"/>
<path d="M1452 580.134V754.934L1545.07 754.134C1596.13 753.734 1680.4 752.934 1732.4 752.534L1826.67 751.734V578.534V405.334H1639.33H1452V580.134Z" fill="#F5880D"/>
<path d="M1452.4 807.601C1450.4 808.401 1450.27 837.601 1451.6 1028.27L1452.4 1157.33H1639.6H1826.67V982.001V806.667L1640.4 806.801C1537.87 806.801 1453.2 807.201 1452.4 807.601Z" fill="#F5880D"/>
<path d="M968 881.601C968 922.134 967.6 1000.8 967.067 1056.27L966.267 1157.33H1153.6H1340.93L1341.73 1099.07C1342.93 1024.53 1342.93 851.734 1341.73 826.934L1340.93 808.001H1154.4H968V881.601Z" fill="#F5880D"/>
<path d="M520.667 810.667L483.334 811.334L482.934 984.267L482.667 1157.33H671.334H860V983.334V809.334L709.067 809.601C626 809.867 541.2 810.267 520.667 810.667Z" fill="#F5880D"/>
<path d="M661.734 1212.93L482.667 1213.33V1385.33V1557.33H671.334H860V1384.67V1212L850.4 1212.27C845.067 1212.53 760.134 1212.8 661.734 1212.93Z" fill="#F5880D"/>
<path d="M968 1375.07C968 1464.13 967.6 1541.47 967.2 1547.07L966.267 1557.33H1153.6H1340.93L1341.73 1410.27C1342.27 1329.47 1343.07 1252.13 1343.6 1238.27L1344.4 1213.33H1156.27H968V1375.07Z" fill="#F5880D"/>
<path d="M1452 1385.33V1557.33H1639.2H1826.4L1827.2 1554.27C1828.27 1550.27 1828.27 1381.47 1827.07 1288.27L1826.27 1213.33H1639.07H1452V1385.33Z" fill="#F5880D"/>
<path d="M0 1386V1557.33H187.333H374.667V1386V1214.67H187.333H0V1386Z" fill="#F5880D"/>
<path d="M3618.11 2.17045L3605.4 3.41017L3603.23 19.5265C3602.3 28.5145 3601.37 53.3089 3601.37 75.0039V114.675H3711.4H3821.43V392.062V669.449H3881.87H3942.31V392.062V114.675H4049.24H4156.17V57.3379V0.0009408L3893.65 0.6208C3748.91 0.93073 3624.93 1.55059 3618.11 2.17045Z" fill="white"/>
<path d="M4395.76 3.10274C4358.56 7.13183 4326.64 28.8269 4306.8 62.9192L4298.43 76.866L4299.36 335.347L4300.29 593.519L4307.42 607.776C4316.41 626.062 4343.69 652.096 4362.9 661.084C4377.47 667.902 4379.95 667.902 4562.82 668.832L4747.54 669.762L4770.17 658.294C4799.3 643.728 4829.06 614.904 4834.95 595.069C4838.35 583.911 4839.59 536.182 4840.21 364.171C4840.83 244.848 4840.21 131.724 4838.66 112.818C4835.26 72.527 4829.68 59.2 4805.81 35.6454C4786.59 16.4297 4767.38 6.8219 4741.34 2.79281C4718.72 -0.306483 4424.58 -0.306483 4395.76 3.10274ZM4725.54 333.488C4724.61 453.741 4723.06 552.918 4722.44 553.848C4721.51 554.468 4651.77 556.017 4567.16 556.947L4413.42 558.807V336.897V114.677H4570.56H4727.4L4725.54 333.488Z" fill="white"/>
<path d="M5103.05 2.79031C5069.26 4.33996 5064.3 5.57968 5050.67 13.6379C5030.83 25.1053 5010.68 46.8003 5005.72 61.367C5002.93 69.1153 5000.76 111.576 4998.6 192.777L4995.5 312.72L5003.86 327.287C5017.19 349.912 5035.17 367.888 5054.69 377.185L5072.05 385.863L5241.9 386.793L5411.44 387.723V472.334V557.255L5210.29 558.184C5099.64 558.804 5008.51 560.044 5007.58 560.974C5006.65 561.904 5005.1 586.698 5003.86 615.831L5001.69 669.449H5222.06H5442.74L5461.34 659.841C5485.52 647.754 5505.97 628.848 5515.89 609.013C5523.02 595.686 5524.26 587.938 5526.43 549.816C5527.67 525.952 5527.67 471.404 5526.74 428.944C5524.57 357.04 5523.95 350.841 5517.13 336.895C5508.14 318.299 5487.06 297.224 5468.16 287.926L5453.28 280.487L5286.53 278.628C5195.1 277.698 5119.47 276.148 5118.85 275.528C5118.23 274.909 5117.3 238.647 5116.68 195.257L5115.44 116.225L5316.29 115.295L5516.82 114.675V57.3379V0.0009408L5328.68 0.6208C5224.85 0.93073 5123.5 1.86052 5103.05 2.79031Z" fill="white"/>
<path d="M5696.59 334.725V669.449H5755.48H5814.36V533.08V396.711L5954.77 396.401C6031.63 396.401 6102.3 395.161 6111.29 393.922L6127.41 391.752V530.601V669.449H6187.85H6248.28V334.725V0.0009408H6187.85H6127.41V141.019V282.037H5970.89H5814.36V141.019V0.0009408H5755.48H5696.59V334.725Z" fill="white"/>
<path d="M6437.35 334.725V669.449H6498.41H6559.16L6556.99 358.59C6556.06 187.818 6554.2 37.1925 6553.27 23.8655L6551.1 0.0009408H6494.38H6437.35V334.725Z" fill="white"/>
<path d="M2302.71 6.20204C2256.22 8.68148 2242.59 13.6404 2221.51 36.2652C2199.19 60.4398 2198.88 61.9894 2198.88 201.458C2198.88 322.95 2198.88 323.88 2206.01 338.447C2214.38 355.183 2231.43 371.609 2250.64 381.527C2268 390.515 2323.17 393.304 2494.26 393.304L2618.86 393.614V475.746V557.877H2408.09H2197.33V613.664V669.762L2422.97 668.832L2648.3 667.902L2665.97 659.534C2692 647.447 2704.09 637.219 2719.9 613.354L2734.15 591.969L2731.98 481.014C2731.05 420.268 2728.58 362.931 2727.03 353.633C2723.62 333.488 2709.67 312.723 2688.9 297.846C2675.27 288.238 2671.24 286.998 2643.96 284.519C2627.53 283.279 2544.78 281.11 2459.85 280.18L2305.5 278.32L2306.43 202.698C2307.05 145.98 2308.29 126.455 2311.39 123.356C2315.11 119.636 2435.99 116.847 2683.32 114.987L2721.14 114.677V58.8901V3.10274L2531.45 3.7226C2427 3.7226 2324.1 4.96232 2302.71 6.20204Z" fill="white"/>
<path d="M3034.18 5.88948L2992.34 7.74906L2974.67 19.5264C2956.07 31.9236 2946.47 42.7711 2934.69 65.0861L2927.25 79.0329L2926.32 374.086L2925.39 669.449H2983.04H3040.38V556.325V443.2H3196.9H3353.42V556.325V669.449H3412.31H3471.2L3470.89 563.143C3470.58 504.876 3469.65 372.846 3468.41 269.64L3466.24 82.1322L3459.11 68.1854C3448.88 48.9697 3422.23 24.1753 3400.84 13.6377L3382.86 4.64976L3229.44 4.33983C3145.14 4.33983 3057.11 4.95969 3034.18 5.88948ZM3353.42 223.15V331.626H3196.9H3040.38V223.15V114.675H3196.9H3353.42V223.15Z" fill="white"/>
<path d="M2197.33 1221.97V1556.69L2429.17 1555.76L2660.7 1554.83L2679.29 1545.84C2701.61 1534.69 2719.9 1518.26 2737.87 1493.16L2751.2 1474.25L2753.68 1230.34L2755.85 986.731L2742.52 961.316C2727.03 930.943 2707.81 910.798 2681.77 896.851L2662.87 886.933H2430.1H2197.33V1221.97ZM2637.45 1185.4C2637.45 1286.74 2636.52 1386.54 2635.28 1407L2633.42 1444.81H2472.56H2312.01V1223.21V1001.61H2474.73H2637.45V1185.4Z" fill="white"/>
<path d="M3055.87 889.718C3024.57 891.577 3018.06 892.817 3003.8 900.565C2983.66 911.723 2959.79 936.517 2949.25 957.593L2941.2 973.399V1265.04V1556.38H2997.92H3054.94L3056.8 1451.62C3058.04 1394.28 3059.9 1343.46 3060.83 1338.5L3062.69 1330.13L3215.19 1330.75L3367.37 1331.68L3366.13 1443.87L3364.89 1556.38H3426.26H3487.31L3484.84 1262.87L3482.67 969.37L3472.44 952.014C3459.73 930.319 3432.45 904.285 3413.24 895.297C3398.67 888.788 3395.26 888.478 3244.94 888.168C3160.64 887.858 3075.4 888.478 3055.87 889.718ZM3368.92 1110.08V1218.55H3212.4H3055.87L3056.18 1121.55C3056.49 1068.55 3057.42 1020.51 3058.66 1015.55L3060.52 1006.25L3091.52 1004.39C3108.56 1003.46 3177.99 1002.53 3245.87 1002.22L3368.92 1001.6V1110.08Z" fill="white"/>
<path d="M3745.5 889.721C3718.84 891.271 3712.33 892.821 3699.32 900.569C3680.41 911.416 3659.02 933.111 3650.03 950.158C3643.53 962.245 3643.22 967.204 3642.29 1054.6C3641.67 1105.12 3642.6 1161.22 3644.15 1179.2C3646.94 1208.02 3648.49 1213.6 3656.85 1225.69C3667.08 1240.87 3682.58 1255.44 3699.94 1266.29C3711.4 1273.41 3711.71 1273.41 3859.87 1275.58C3941.69 1276.51 4020.73 1278.37 4035.91 1279.61L4063.19 1281.47V1362.98V1444.81H3855.84H3648.49L3646.63 1467.12C3645.7 1479.52 3644.15 1504.93 3642.91 1523.22L3641.05 1557L3872.88 1555.76C4133.55 1554.83 4109.99 1557 4139.74 1530.35C4148.11 1522.6 4160.51 1508.96 4166.71 1499.66L4178.18 1482.93L4177.25 1360.81C4176.32 1221.04 4177.87 1230.64 4146.56 1199.34C4116.19 1168.97 4129.83 1170.83 3929.91 1168.97L3754.8 1167.42V1085.29V1003.16L3958.74 1002.23L4162.37 1001.61V944.269V886.932L3969.59 887.552C3863.28 887.862 3762.54 888.791 3745.5 889.721Z" fill="white"/>
<path d="M4345.24 1221.65V1556.38H4402.57H4459.91V1418.46V1280.54H4617.99H4776.06V1418.46V1556.38H4834.64H4892.9L4895.07 1542.12C4897.55 1522.9 4897.55 998.503 4894.76 935.588L4892.9 886.929H4834.33H4776.06V1024.85V1162.77H4617.99H4459.91V1024.85V886.929H4402.57H4345.24V1221.65Z" fill="white"/>
<path d="M5097.78 889.098L5086 890.338V1223.51V1556.38H5327.76H5569.51L5594.93 1538.09C5609.18 1528.17 5631.5 1509.89 5644.83 1497.49L5668.69 1475.18V1371.66V1268.14L5639.25 1236.53C5623.13 1219.48 5609.8 1204.3 5609.8 1203.37C5610.11 1202.44 5619.1 1193.76 5629.95 1184.46L5649.48 1167.42L5649.79 1064.52L5650.1 961.932L5623.13 936.517C5608.25 922.881 5587.8 905.834 5577.88 899.016L5559.59 886.929L5334.26 887.549C5210.6 887.858 5103.98 888.478 5097.78 889.098ZM5449.56 1004.7H5535.42V1080.63V1156.57L5370.53 1155.95L5205.33 1155.02L5204.4 1124.02C5203.78 1106.98 5204.4 1073.2 5205.33 1049.02L5207.5 1004.7L5260.81 1003.77C5289.94 1003.15 5324.97 1003.15 5338.6 1003.77C5352.24 1004.08 5402.14 1004.7 5449.56 1004.7ZM5547.81 1356.47V1444.8H5375.8H5203.78V1356.47V1268.14H5375.8H5547.81V1356.47Z" fill="white"/>
<path d="M5981.11 890.028C5963.45 893.127 5933.07 912.343 5903.32 939.617L5882.55 958.832V1219.48V1480.44L5922.54 1518.26L5962.52 1556.38H6173.59H6384.35L6400.78 1546.77C6420.92 1534.99 6439.83 1520.12 6461.53 1499.35L6477.64 1483.85V1224.44V964.721L6447.58 936.827C6430.84 921.331 6410.38 903.975 6401.71 897.776L6386.21 886.929L6190.95 887.239C6083.71 887.549 5989.17 888.788 5981.11 890.028ZM6356.76 1223.2V1444.8H6177H5997.23L5998.78 1326.1C5999.71 1261.01 6001.26 1161.22 6002.19 1104.5L6004.05 1001.6H6180.41H6356.76V1223.2Z" fill="white"/>
<path d="M6793.16 890.028C6732.41 892.817 6732.41 892.817 6688.4 931.868L6660.51 956.663V1256.36V1556.38H6717.85H6775.19V1443.25V1330.13H6931.71H7088.23V1443.25V1556.38H7147.12H7206.01V1257.6V958.832L7177.49 931.868C7161.69 916.992 7142.78 901.495 7135.34 897.156L7121.7 889.098L6983.47 888.168C6907.22 887.858 6821.68 888.478 6793.16 890.028ZM7084.51 1006.25C7087.3 1007.18 7088.23 1031.36 7088.23 1113.18V1218.55H6931.71H6775.19V1110.7V1002.84L6927.99 1003.77C7011.67 1004.7 7082.34 1005.63 7084.51 1006.25Z" fill="white"/>
<path d="M7471.94 889.098C7405.92 890.028 7404.37 890.338 7400.65 897.156C7397.55 902.425 7396.31 972.779 7395.69 1230.02L7394.76 1556.38H7457.06H7519.05V1440.15V1323.93H7608.62H7697.89L7745.31 1406.68C7771.34 1452.55 7801.72 1504.62 7812.56 1522.9L7832.4 1556.38H7900.28C7937.78 1556.38 7968.47 1555.45 7968.47 1554.52C7968.47 1553.59 7951.11 1523.21 7930.03 1487.26C7846.97 1344.69 7836.12 1324.24 7842.01 1322.69C7844.18 1322.07 7853.48 1319.9 7862.47 1318.04C7871.45 1316.18 7884.78 1310.6 7891.91 1305.64C7913.3 1291.08 7936.54 1264.11 7941.19 1249.24C7944.29 1238.7 7945.22 1204.92 7945.22 1106.98C7945.22 980.527 7945.22 978.048 7938.4 963.481C7929.72 944.885 7894.7 909.863 7873.93 898.706L7858.44 890.648L7698.82 889.408C7611.1 888.788 7508.82 888.478 7471.94 889.098ZM7824.96 1005.32C7828.37 1011.52 7829.92 1097.68 7827.44 1158.12L7825.27 1212.35H7670.61H7515.95V1111.94C7515.95 1033.22 7516.88 1010.9 7519.98 1008.42C7525.25 1004.08 7555 1003.15 7702.53 1002.22C7795.52 1001.6 7823.1 1002.53 7824.96 1005.32Z" fill="white"/>
<path d="M8135.52 889.098C8131.81 890.028 8129.95 895.607 8128.4 911.103C8127.47 922.571 8126.54 1072.27 8126.54 1243.97V1556.38H8359.3H8592.07L8609.74 1545.53C8633.91 1530.96 8656.85 1505.86 8670.18 1479.51L8681.33 1457.2L8681.02 1261.32C8681.02 1034.46 8678.85 981.457 8669.87 961.312C8660.88 941.166 8637.63 914.202 8619.04 902.425L8602.92 891.887L8543.72 889.718C8481.11 887.239 8143.89 886.619 8135.52 889.098ZM8560.77 1220.1C8560.15 1339.43 8559.22 1437.67 8558.6 1438.29C8558.29 1438.91 8487.93 1440.15 8402.7 1441.08L8247.41 1442.63V1221.96V1001.6L8404.86 1002.22L8562.01 1003.15L8560.77 1220.1Z" fill="white"/>
</svg>
